<svg xmlns="http://www.w3.org/2000/svg" width="500" height="500" viewBox="0 0 132.292 132.292" xmlns:v="https://vecta.io/nano"><circle cx="66.146" cy="66.146" r="65.828" fill="#f9f9f9" paint-order="markers stroke fill"/><path d="M68.072 34.886h11.67c1.172 0 2.13.957 2.13 2.13v9.4h-15.93v-9.4c0-1.172.957-2.13 2.13-2.13zM81.876 52.16V80.8H65.943V52.16zm0 34.38v8.742c0 1.172-.957 2.13-2.13 2.13H68.072c-1.172 0-2.13-.957-2.13-2.13V86.54zm9.388-51.654h11.67c1.172 0 2.13.957 2.13 2.13v9.4H89.136v-9.4a2.14 2.14 0 0 1 2.129-2.129zm13.804 17.276V80.8H89.136V52.16h15.92zm0 34.38v8.742c0 1.172-.957 2.13-2.13 2.13H91.27c-1.172 0-2.13-.957-2.13-2.13V86.54zm-55.07-51.77l10.966 4c1.102.4 1.672 1.628 1.273 2.73l-3.212 8.83-14.97-5.448 3.212-8.83a2.14 2.14 0 0 1 2.73-1.273zm7.064 20.956l-9.788 26.905-14.97-5.448 9.788-26.898zM45.3 88.036l-3 8.2c-.4 1.102-1.628 1.672-2.73 1.273l-10.966-4c-1.102-.4-1.672-1.628-1.273-2.73l3-8.2z" fill-rule="evenodd" fill="#ea6262"/></svg>