<svg xmlns="http://www.w3.org/2000/svg" width="500" height="500" viewBox="0 0 132.292 132.292" xmlns:v="https://vecta.io/nano"><circle cx="66.146" cy="66.146" r="65.828" fill="#f9f9f9" paint-order="markers stroke fill"/><g fill="#52bd64"><path d="M28.848 63.42c-6.027 3.973-10.08 11.385-10.08 19.872 0 5.253 6.4 4.302 19.995 4.302 15.515 0 20.413.977 20.413-4.302 0-8.455-4.023-15.84-10.01-19.825a13.101 13.101 0 0 1-20.317-.047z" paint-order="markers stroke fill"/><circle cx="38.972" cy="54.651" r="11.853" paint-order="markers stroke fill"/><path d="M83.356 63.42c-6.027 3.973-10.08 11.385-10.08 19.872 0 5.253 6.4 4.302 19.995 4.302 15.515 0 20.413.977 20.413-4.302 0-8.455-4.022-15.84-10.01-19.825a13.101 13.101 0 0 1-20.317-.047z" paint-order="markers stroke fill"/><circle cx="93.479" cy="54.651" r="11.853" paint-order="markers stroke fill"/></g><g fill="#6c7"><path d="M49.632 62.83C39.802 69.31 33.19 81.4 33.19 95.245c0 8.57 10.456 7.017 32.616 7.017 25.307 0 33.297 1.594 33.297-7.017 0-13.79-6.56-25.84-16.33-32.34a21.37 21.37 0 0 1-33.141-.076z" paint-order="markers stroke fill"/><circle r="19.335" cy="49.391" cx="66.146" paint-order="markers stroke fill"/></g></svg>